<svg version="1.1" id="Layer_1" xmlns="http://www.w3.org/2000/svg" xmlns:xlink="http://www.w3.org/1999/xlink" x="0px" y="0px"
	 width="100%" viewBox="0 0 118 119" enable-background="new 0 0 118 119" xml:space="preserve">
<path fill="#FFFFFF" opacity="1.000000" stroke="none" 
	d="
M119.000000,44.000000 
	C119.000000,69.666664 119.000000,94.833328 119.000000,120.000000 
	C79.666672,120.000000 40.333347,120.000000 1.000017,120.000000 
	C1.000012,80.333344 1.000012,40.666691 1.000006,1.000028 
	C40.333317,1.000019 79.666634,1.000019 118.999969,1.000009 
	C119.000000,15.166667 119.000000,29.333334 119.000000,44.000000 
M88.472748,10.977369 
	C67.660522,10.977394 46.848255,10.955473 26.036079,10.988622 
	C18.099813,11.001263 15.026555,13.994045 15.014107,21.762730 
	C14.977290,44.739361 14.977603,67.716125 15.013704,90.692757 
	C15.026315,98.718491 18.176561,101.795364 26.264357,101.861816 
	C30.844683,101.899460 35.425571,101.868622 40.406967,101.868622 
	C40.406967,107.403084 40.406967,112.115768 40.406967,117.768204 
	C44.924274,114.618538 49.041782,112.358017 52.405388,109.274994 
	C59.354404,102.905624 67.182640,100.467087 76.537300,101.484909 
	C82.131996,102.093636 87.847000,101.603516 93.507919,101.595047 
	C103.318947,101.580360 105.610367,99.316383 105.618782,89.507744 
	C105.636635,68.695541 105.624275,47.883316 105.624283,27.071096 
	C105.624290,11.959773 104.637489,10.977399 88.472748,10.977369 
z"/>
<path fill="#E43939" opacity="1.000000" stroke="none" 
	d="
M88.965546,10.977367 
	C104.637489,10.977399 105.624290,11.959773 105.624283,27.071096 
	C105.624275,47.883316 105.636635,68.695541 105.618782,89.507744 
	C105.610367,99.316383 103.318947,101.580360 93.507919,101.595047 
	C87.847000,101.603516 82.131996,102.093636 76.537300,101.484909 
	C67.182640,100.467087 59.354404,102.905624 52.405388,109.274994 
	C49.041782,112.358017 44.924274,114.618538 40.406967,117.768204 
	C40.406967,112.115768 40.406967,107.403084 40.406967,101.868622 
	C35.425571,101.868622 30.844683,101.899460 26.264357,101.861816 
	C18.176561,101.795364 15.026315,98.718491 15.013704,90.692757 
	C14.977603,67.716125 14.977290,44.739361 15.014107,21.762730 
	C15.026555,13.994045 18.099813,11.001263 26.036079,10.988622 
	C46.848255,10.955473 67.660522,10.977394 88.965546,10.977367 
M98.980896,86.393234 
	C98.980873,65.231796 98.883041,44.069496 99.068443,22.909679 
	C99.102974,18.968531 98.032265,17.749470 94.030212,17.780464 
	C71.537102,17.954672 49.041348,17.946747 26.548065,17.784275 
	C22.754297,17.756870 21.764532,18.962650 21.789118,22.638184 
	C21.939585,45.131634 21.967499,67.627495 21.771614,90.120247 
	C21.735394,94.279388 23.204493,95.210335 27.002150,95.055511 
	C33.594860,94.786743 40.206436,94.980835 47.242321,94.980835 
	C47.242321,98.656708 47.242321,101.704727 47.242321,105.307365 
	C48.756996,104.262596 49.831791,103.758629 50.594833,102.957657 
	C57.162251,96.063934 65.127945,93.850784 74.500809,94.869293 
	C80.099960,95.477730 85.819221,94.981300 91.484489,94.980804 
	C98.977692,94.980141 98.977692,94.979836 98.980896,86.393234 
z"/>
<path fill="#FFFDFD" opacity="1.000000" stroke="none" 
	d="
M98.980896,86.877159 
	C98.977692,94.979836 98.977692,94.980141 91.484489,94.980804 
	C85.819221,94.981300 80.099960,95.477730 74.500809,94.869293 
	C65.127945,93.850784 57.162251,96.063934 50.594833,102.957657 
	C49.831791,103.758629 48.756996,104.262596 47.242321,105.307365 
	C47.242321,101.704727 47.242321,98.656708 47.242321,94.980835 
	C40.206436,94.980835 33.594860,94.786743 27.002150,95.055511 
	C23.204493,95.210335 21.735394,94.279388 21.771614,90.120247 
	C21.967499,67.627495 21.939585,45.131634 21.789118,22.638184 
	C21.764532,18.962650 22.754297,17.756870 26.548065,17.784275 
	C49.041348,17.946747 71.537102,17.954672 94.030212,17.780464 
	C98.032265,17.749470 99.102974,18.968531 99.068443,22.909679 
	C98.883041,44.069496 98.980873,65.231796 98.980896,86.877159 
M57.172611,66.348839 
	C59.595963,60.316864 56.347240,53.807491 48.206779,53.071068 
	C46.058056,52.876686 43.774498,53.070038 41.803925,52.374268 
	C40.349079,51.860596 38.350269,50.206596 38.332401,49.034172 
	C38.313332,47.782402 40.125698,45.797180 41.513023,45.381332 
	C44.130783,44.596657 47.016987,44.707535 49.836151,44.441994 
	C50.691544,38.717602 46.365860,39.121147 43.090870,38.753193 
	C42.424099,36.932690 41.874859,35.433083 41.325619,33.933475 
	C40.818432,33.731106 40.311241,33.528736 39.804054,33.326366 
	C39.026276,34.721413 37.334270,36.382835 37.648075,37.459824 
	C38.474918,40.297581 36.984306,41.246780 35.135315,42.588982 
	C32.091698,44.798378 30.599072,47.789204 31.464447,51.713425 
	C32.353619,55.745544 34.803955,58.161224 38.778416,58.956093 
	C41.058620,59.412117 43.524876,59.219002 45.670441,59.983261 
	C47.587078,60.665974 49.178432,62.261875 50.913326,63.454823 
	C49.493046,65.062325 48.354759,67.482941 46.589321,68.095207 
	C43.611633,69.127884 40.236404,69.014259 37.016479,69.384087 
	C36.680199,75.560722 41.135647,74.785538 44.917233,74.810638 
	C45.535942,76.731865 46.080101,78.421608 46.672169,80.260109 
	C49.325226,80.129135 51.854137,80.062881 50.512001,76.427628 
	C49.550686,73.823845 50.561245,72.537537 52.691242,71.196159 
	C54.316700,70.172516 55.515366,68.471161 57.172611,66.348839 
M77.312271,77.929123 
	C74.024384,77.014809 70.736488,76.100494 66.762024,74.995255 
	C66.825890,75.707695 66.866264,77.236732 67.122498,78.728691 
	C67.408257,80.392525 67.861412,82.030411 68.300247,83.663857 
	C68.488426,84.364281 68.647812,85.350670 69.139954,85.617493 
	C69.696533,85.919235 71.177513,85.758492 71.284538,85.455521 
	C72.409088,82.272057 75.302055,83.418564 77.405762,82.575066 
	C79.797821,81.615944 82.850174,79.878662 83.543495,77.791389 
	C84.233688,75.713486 82.577049,72.683716 81.510262,70.265022 
	C80.951149,68.997368 79.152992,68.308411 78.464806,67.055733 
	C77.867310,65.968124 77.659492,64.320999 78.052406,63.189564 
	C78.232002,62.672390 80.445160,62.350246 81.427650,62.732418 
	C83.312111,63.465439 84.976456,64.764381 87.313156,66.180725 
	C87.438286,64.510902 87.865959,63.198235 87.544029,62.106644 
	C87.013771,60.308693 81.778717,57.987946 79.803726,57.949306 
	C76.266609,57.880104 73.545258,58.992794 72.286064,62.442715 
	C70.947205,66.110878 72.805145,68.634857 75.257423,71.257370 
	C76.688919,72.788239 77.086632,75.285774 77.312271,77.929123 
M61.574669,47.313141 
	C63.159801,49.294106 64.744934,51.275070 66.713615,53.735359 
	C67.315437,52.493481 67.609062,50.961025 68.535980,50.204399 
	C69.753601,49.210472 71.685211,49.102684 72.930229,48.128670 
	C76.250580,45.531059 75.313484,41.150490 71.378349,38.775463 
	C69.641891,37.727436 68.327377,35.980301 66.821304,34.550560 
	C68.935799,34.408829 71.051590,34.282673 73.163155,34.105976 
	C73.431908,34.083492 73.678566,33.796936 74.386703,33.344269 
	C72.966125,31.170359 71.550247,29.003637 69.895721,26.471708 
	C68.778267,27.891647 68.061569,29.406832 66.866966,30.219515 
	C60.440388,34.591484 60.593281,37.792282 67.328377,41.486153 
	C68.600716,42.183968 69.276817,43.968937 70.228035,45.252262 
	C68.609467,45.635906 67.004967,46.104527 65.367767,46.375694 
	C64.109932,46.584034 62.810902,46.543678 61.574669,47.313141 
z"/>
<path fill="#E43838" opacity="1.000000" stroke="none" 
	d="
M57.038246,66.710068 
	C55.515366,68.471161 54.316700,70.172516 52.691242,71.196159 
	C50.561245,72.537537 49.550686,73.823845 50.512001,76.427628 
	C51.854137,80.062881 49.325226,80.129135 46.672169,80.260109 
	C46.080101,78.421608 45.535942,76.731865 44.917233,74.810638 
	C41.135647,74.785538 36.680199,75.560722 37.016479,69.384087 
	C40.236404,69.014259 43.611633,69.127884 46.589321,68.095207 
	C48.354759,67.482941 49.493046,65.062325 50.913322,63.454819 
	C49.178432,62.261875 47.587078,60.665974 45.670441,59.983261 
	C43.524876,59.219002 41.058620,59.412117 38.778416,58.956093 
	C34.803955,58.161224 32.353619,55.745544 31.464447,51.713425 
	C30.599072,47.789204 32.091698,44.798378 35.135315,42.588982 
	C36.984306,41.246780 38.474918,40.297581 37.648075,37.459824 
	C37.334270,36.382835 39.026276,34.721413 39.804054,33.326366 
	C40.311241,33.528736 40.818432,33.731106 41.325619,33.933475 
	C41.874859,35.433083 42.424099,36.932690 43.090870,38.753193 
	C46.365860,39.121147 50.691544,38.717602 49.836151,44.441994 
	C47.016987,44.707535 44.130783,44.596657 41.513023,45.381332 
	C40.125698,45.797180 38.313332,47.782402 38.332401,49.034172 
	C38.350269,50.206596 40.349079,51.860596 41.803925,52.374268 
	C43.774498,53.070038 46.058056,52.876686 48.206779,53.071068 
	C56.347240,53.807491 59.595963,60.316864 57.038246,66.710068 
z"/>
<path fill="#E53B3B" opacity="1.000000" stroke="none" 
	d="
M77.630859,77.638763 
	C77.086632,75.285774 76.688919,72.788239 75.257423,71.257370 
	C72.805145,68.634857 70.947205,66.110878 72.286064,62.442715 
	C73.545258,58.992794 76.266609,57.880104 79.803726,57.949306 
	C81.778717,57.987946 87.013771,60.308693 87.544029,62.106644 
	C87.865959,63.198235 87.438286,64.510902 87.313156,66.180725 
	C84.976456,64.764381 83.312111,63.465439 81.427650,62.732418 
	C80.445160,62.350246 78.232002,62.672390 78.052406,63.189564 
	C77.659492,64.320999 77.867310,65.968124 78.464806,67.055733 
	C79.152992,68.308411 80.951149,68.997368 81.510262,70.265022 
	C82.577049,72.683716 84.233688,75.713486 83.543495,77.791389 
	C82.850174,79.878662 79.797821,81.615944 77.405762,82.575066 
	C75.302055,83.418564 72.409088,82.272057 71.284538,85.455521 
	C71.177513,85.758492 69.696533,85.919235 69.139954,85.617493 
	C68.647812,85.350670 68.488426,84.364281 68.300247,83.663857 
	C67.861412,82.030411 67.408257,80.392525 67.122498,78.728691 
	C66.866264,77.236732 66.825890,75.707695 66.762024,74.995255 
	C70.736488,76.100494 74.024384,77.014809 77.630859,77.638763 
z"/>
<path fill="#E54040" opacity="1.000000" stroke="none" 
	d="
M61.552429,46.963531 
	C62.810902,46.543678 64.109932,46.584034 65.367767,46.375694 
	C67.004967,46.104527 68.609467,45.635906 70.228035,45.252262 
	C69.276817,43.968937 68.600716,42.183968 67.328377,41.486153 
	C60.593281,37.792282 60.440388,34.591484 66.866966,30.219515 
	C68.061569,29.406832 68.778267,27.891647 69.895721,26.471708 
	C71.550247,29.003637 72.966125,31.170359 74.386703,33.344269 
	C73.678566,33.796936 73.431908,34.083492 73.163155,34.105976 
	C71.051590,34.282673 68.935799,34.408829 66.821304,34.550560 
	C68.327377,35.980301 69.641891,37.727436 71.378349,38.775463 
	C75.313484,41.150490 76.250580,45.531059 72.930229,48.128670 
	C71.685211,49.102684 69.753601,49.210472 68.535980,50.204399 
	C67.609062,50.961025 67.315437,52.493481 66.713615,53.735359 
	C64.744934,51.275070 63.159801,49.294106 61.552429,46.963531 
z"/>
</svg>